<svg xmlns="http://www.w3.org/2000/svg" xmlns:xlink="http://www.w3.org/1999/xlink" width="36" height="36" viewBox="0 0 36 36">
    <defs>
        <path id="a" d="M9.284 7.072a.345.345 0 0 0 .46.028 13.723 13.723 0 0 1 2.778-1.683v12.677l.012.092a5.702 5.702 0 0 0 3.714 5.242l.12.02a.347.347 0 0 0 .347-.347v-4.693l-.004-.058-.018-.132.023-.124V.678a.347.347 0 0 0-.348-.347l-.037.001c-3.43.36-6.658 1.711-9.337 3.905a.345.345 0 0 0-.126.252.344.344 0 0 0 .101.262l2.315 2.32zm22.647-.306a.349.349 0 0 0-.252-.128h-.018a.348.348 0 0 0-.246.102L29.1 9.061a.346.346 0 0 0-.029.459 13.692 13.692 0 0 1 2.906 8.477c0 7.613-6.179 13.809-13.775 13.809S4.426 25.61 4.426 17.996c0-3.1 1.005-6.032 2.905-8.476a.347.347 0 0 0-.028-.46L4.987 6.74a.346.346 0 0 0-.245-.102h-.018a.346.346 0 0 0-.251.127A17.82 17.82 0 0 0 .48 17.997c0 9.794 7.95 17.763 17.723 17.763 9.772 0 17.723-7.969 17.723-17.763 0-4.085-1.418-8.073-3.994-11.231h-.001zM18.2 26.006c-4.405 0-7.99-3.593-7.99-8.009 0-1.548.443-3.051 1.282-4.348a.346.346 0 0 0-.046-.433l-2.291-2.297a.346.346 0 0 0-.246-.102h-.026a.348.348 0 0 0-.255.141 11.822 11.822 0 0 0-2.301 7.04c0 6.562 5.326 11.9 11.873 11.9s11.873-5.338 11.873-11.9c0-4.457-2.432-8.476-6.361-10.54V5.34c1.052.461 2.041 1.05 2.946 1.758a.346.346 0 0 0 .46-.03l2.314-2.319a.351.351 0 0 0-.026-.515 17.593 17.593 0 0 0-9.508-3.92l-.033-.002a.346.346 0 0 0-.347.348v9.146c0 .165.116.308.278.34 3.704.753 6.393 4.054 6.393 7.85 0 4.415-3.583 8.008-7.989 8.008v.001z"/>
    </defs>
    <g fill="none" fill-rule="evenodd">
        <mask id="b" fill="#fff">
            <use xlink:href="#a"/>
        </mask>
        <use fill="#000" xlink:href="#a"/>
        <g fill="#FFF" mask="url(#b)">
            <path d="M0 0h36v36H0z"/>
        </g>
    </g>
</svg>
